<svg xmlns="http://www.w3.org/2000/svg" xmlns:xlink="http://www.w3.org/1999/xlink" width="170" zoomAndPan="magnify" viewBox="0 0 127.5 179.999997" height="240" preserveAspectRatio="xMidYMid meet" version="1.0"><defs><clipPath id="155a3871d8"><path d="M 41 0.351562 L 117 0.351562 L 117 98 L 41 98 Z M 41 0.351562 " clip-rule="nonzero"/></clipPath><clipPath id="a94a2c4836"><path d="M 0 81 L 86 81 L 86 179.648438 L 0 179.648438 Z M 0 81 " clip-rule="nonzero"/></clipPath><clipPath id="a70b289475"><path d="M 11 9 L 127 9 L 127 179.648438 L 11 179.648438 Z M 11 9 " clip-rule="nonzero"/></clipPath></defs><g clip-path="url(#155a3871d8)"><path fill="#c02777" d="M 114.714844 49.101562 C 110.96875 39.351562 95.980469 9.351562 95.980469 9.351562 C 91.480469 1.101562 72.742188 0.351562 63.75 0.351562 C 57.753906 0.351562 48.757812 0.351562 42.761719 2.601562 C 41.265625 7.851562 40.515625 21.351562 47.261719 36.351562 C 52.507812 36.351562 59.253906 35.601562 63.75 35.601562 C 71.246094 35.601562 86.234375 35.601562 92.230469 37.101562 C 90.730469 40.851562 88.484375 45.351562 86.234375 49.101562 C 84.734375 51.351562 77.242188 61.101562 71.246094 69.351562 L 94.480469 97.851562 C 100.476562 90.351562 107.222656 82.851562 108.71875 81.351562 C 113.96875 71.601562 118.464844 59.601562 114.714844 49.101562 Z M 114.714844 49.101562 " fill-opacity="1" fill-rule="nonzero"/></g><g clip-path="url(#a94a2c4836)"><path fill="#c02777" d="M 61.5 81.351562 C 36.019531 112.851562 0.0429688 157.101562 0.0429688 157.101562 L 27.773438 180.351562 C 27.773438 180.351562 61.5 138.351562 85.484375 109.101562 C 80.988281 104.601562 71.246094 94.101562 61.5 81.351562 Z M 61.5 81.351562 " fill-opacity="1" fill-rule="nonzero"/></g><g clip-path="url(#a70b289475)"><path fill="#c02777" d="M 127.457031 157.101562 L 99.726562 180.351562 C 99.726562 180.351562 26.273438 88.851562 20.277344 80.601562 C 14.28125 72.351562 9.785156 59.601562 12.78125 49.101562 C 15.78125 38.601562 31.519531 9.351562 31.519531 9.351562 C 31.519531 9.351562 30.769531 13.851562 30.769531 19.851562 C 30.769531 25.851562 33.769531 37.851562 41.265625 49.101562 C 48.757812 60.351562 127.457031 157.101562 127.457031 157.101562 Z M 127.457031 157.101562 " fill-opacity="1" fill-rule="nonzero"/></g></svg>