<svg xmlns="http://www.w3.org/2000/svg" xmlns:xlink="http://www.w3.org/1999/xlink" width="313" zoomAndPan="magnify" viewBox="0 0 234.75 286.499991" height="382" preserveAspectRatio="xMidYMid meet" version="1.0"><defs><clipPath id="85e3e4a39f"><path d="M 0.078125 0 L 234.421875 0 L 234.421875 286 L 0.078125 286 Z M 0.078125 0 " clip-rule="nonzero"/></clipPath></defs><g clip-path="url(#85e3e4a39f)"><path fill="#c02777" d="M 117.375 0.09375 C 84.5 0.09375 64.144531 11.136719 48.875 23.363281 C 33.605469 35.589844 23.175781 48.496094 9.792969 53.519531 C 9.410156 53.660156 9.0625 53.863281 8.746094 54.125 C 8.429688 54.386719 8.164062 54.691406 7.953125 55.042969 C 7.738281 55.390625 7.585938 55.765625 7.5 56.167969 C 7.410156 56.566406 7.390625 56.972656 7.4375 57.378906 L 28.945312 238.527344 L 14.742188 238.527344 C 14.253906 238.527344 13.789062 238.621094 13.339844 238.804688 C 12.890625 238.992188 12.492188 239.257812 12.148438 239.601562 C 11.804688 239.945312 11.542969 240.339844 11.355469 240.789062 C 11.167969 241.242188 11.078125 241.707031 11.074219 242.195312 L 11.074219 256.867188 L 3.746094 256.867188 C 3.257812 256.867188 2.792969 256.960938 2.34375 257.148438 C 1.894531 257.332031 1.496094 257.597656 1.152344 257.941406 C 0.808594 258.285156 0.542969 258.683594 0.359375 259.132812 C 0.171875 259.582031 0.078125 260.050781 0.078125 260.535156 L 0.078125 282.546875 C 0.078125 283.03125 0.171875 283.5 0.359375 283.949219 C 0.542969 284.398438 0.808594 284.796875 1.152344 285.140625 C 1.496094 285.484375 1.894531 285.746094 2.34375 285.933594 C 2.792969 286.121094 3.257812 286.214844 3.746094 286.214844 L 231.003906 286.214844 C 231.492188 286.214844 231.957031 286.121094 232.40625 285.933594 C 232.855469 285.746094 233.253906 285.484375 233.597656 285.140625 C 233.941406 284.796875 234.207031 284.398438 234.390625 283.949219 C 234.578125 283.5 234.671875 283.03125 234.671875 282.546875 L 234.671875 260.535156 C 234.671875 260.050781 234.578125 259.582031 234.390625 259.132812 C 234.207031 258.683594 233.941406 258.285156 233.597656 257.941406 C 233.253906 257.597656 232.855469 257.332031 232.40625 257.148438 C 231.957031 256.960938 231.492188 256.867188 231.003906 256.867188 L 223.675781 256.867188 L 223.675781 242.195312 C 223.671875 241.707031 223.582031 241.242188 223.394531 240.789062 C 223.207031 240.339844 222.945312 239.945312 222.601562 239.601562 C 222.257812 239.257812 221.859375 238.992188 221.410156 238.804688 C 220.960938 238.621094 220.496094 238.527344 220.007812 238.527344 L 205.804688 238.527344 L 227.3125 57.378906 C 227.359375 56.972656 227.339844 56.566406 227.25 56.167969 C 227.164062 55.765625 227.011719 55.390625 226.796875 55.042969 C 226.585938 54.691406 226.320312 54.386719 226.003906 54.125 C 225.6875 53.863281 225.339844 53.660156 224.957031 53.519531 C 211.574219 48.496094 201.144531 35.589844 185.875 23.363281 C 170.605469 11.136719 150.25 0.09375 117.375 0.09375 Z M 117.375 7.429688 C 148.644531 7.429688 166.78125 17.476562 181.292969 29.09375 C 194.9375 40.019531 205.3125 52.546875 219.734375 59.003906 L 198.429688 238.527344 L 36.328125 238.527344 L 15.011719 59.003906 C 29.4375 52.546875 39.8125 40.019531 53.457031 29.09375 C 67.96875 17.476562 86.105469 7.429688 117.375 7.429688 Z M 117.375 22.101562 C 82.480469 22.101562 66.527344 36.488281 50.429688 51.210938 C 44.484375 56.652344 38.480469 62.136719 31.695312 66.707031 C 31.410156 66.898438 31.195312 67.152344 31.054688 67.464844 C 30.910156 67.773438 30.859375 68.101562 30.898438 68.441406 L 49.15625 222.242188 C 49.183594 222.464844 49.246094 222.675781 49.351562 222.875 C 49.453125 223.074219 49.589844 223.246094 49.757812 223.398438 C 49.925781 223.546875 50.113281 223.660156 50.324219 223.742188 C 50.53125 223.820312 50.75 223.859375 50.972656 223.859375 L 183.769531 223.859375 C 183.992188 223.863281 184.210938 223.820312 184.421875 223.742188 C 184.632812 223.664062 184.820312 223.546875 184.988281 223.398438 C 185.15625 223.25 185.292969 223.074219 185.398438 222.875 C 185.503906 222.675781 185.566406 222.464844 185.59375 222.242188 L 203.84375 68.441406 C 203.882812 68.195312 203.875 67.949219 203.8125 67.707031 C 203.753906 67.460938 203.648438 67.242188 203.5 67.042969 C 203.347656 66.839844 203.164062 66.679688 202.949219 66.554688 C 202.730469 66.429688 202.496094 66.351562 202.25 66.324219 C 202 66.292969 201.757812 66.3125 201.515625 66.382812 C 201.277344 66.457031 201.058594 66.570312 200.867188 66.730469 C 200.675781 66.890625 200.519531 67.082031 200.40625 67.304688 C 200.289062 67.527344 200.222656 67.761719 200.207031 68.011719 L 182.144531 220.191406 L 52.605469 220.191406 L 34.660156 68.984375 C 41.3125 64.371094 47.246094 59.097656 52.90625 53.917969 C 69.003906 39.195312 83.46875 25.769531 117.375 25.769531 C 126.4375 25.769531 134.070312 26.773438 140.75 28.46875 C 140.984375 28.53125 141.222656 28.542969 141.464844 28.507812 C 141.707031 28.472656 141.929688 28.394531 142.140625 28.269531 C 142.351562 28.144531 142.527344 27.984375 142.671875 27.789062 C 142.820312 27.59375 142.921875 27.378906 142.980469 27.140625 C 143.042969 26.90625 143.054688 26.667969 143.019531 26.425781 C 142.984375 26.183594 142.902344 25.960938 142.777344 25.75 C 142.652344 25.539062 142.492188 25.363281 142.296875 25.21875 C 142.101562 25.070312 141.886719 24.96875 141.652344 24.910156 C 134.660156 23.136719 126.707031 22.101562 117.375 22.101562 Z M 166.730469 37.003906 C 166.339844 37.027344 165.996094 37.160156 165.691406 37.40625 C 165.386719 37.648438 165.183594 37.957031 165.074219 38.332031 C 164.96875 38.707031 164.980469 39.078125 165.113281 39.449219 C 165.242188 39.816406 165.464844 40.109375 165.785156 40.335938 C 170.890625 44.03125 175.5625 48.1875 180.28125 52.492188 C 180.460938 52.667969 180.664062 52.796875 180.894531 52.890625 C 181.128906 52.980469 181.367188 53.019531 181.617188 53.011719 C 181.863281 53.007812 182.101562 52.949219 182.328125 52.847656 C 182.550781 52.742188 182.75 52.601562 182.914062 52.417969 C 183.082031 52.234375 183.207031 52.023438 183.289062 51.789062 C 183.375 51.554688 183.40625 51.3125 183.390625 51.066406 C 183.375 50.816406 183.3125 50.582031 183.203125 50.359375 C 183.089844 50.136719 182.941406 49.945312 182.753906 49.785156 C 178.007812 45.457031 173.230469 41.199219 167.933594 37.363281 C 167.574219 37.097656 167.175781 36.976562 166.730469 37.003906 Z M 188.722656 55.910156 C 188.347656 55.933594 188.015625 56.054688 187.714844 56.28125 C 187.417969 56.507812 187.210938 56.800781 187.089844 57.15625 C 186.972656 57.507812 186.960938 57.867188 187.058594 58.226562 C 187.160156 58.589844 187.351562 58.890625 187.632812 59.132812 C 188.851562 60.214844 190.074219 61.289062 191.335938 62.351562 C 191.519531 62.519531 191.730469 62.644531 191.964844 62.726562 C 192.199219 62.8125 192.441406 62.84375 192.691406 62.828125 C 192.941406 62.8125 193.175781 62.746094 193.398438 62.636719 C 193.621094 62.523438 193.8125 62.371094 193.972656 62.179688 C 194.132812 61.992188 194.25 61.777344 194.324219 61.535156 C 194.398438 61.296875 194.421875 61.054688 194.394531 60.808594 C 194.371094 60.558594 194.296875 60.324219 194.175781 60.105469 C 194.054688 59.890625 193.894531 59.703125 193.699219 59.550781 C 192.472656 58.515625 191.273438 57.460938 190.070312 56.390625 C 189.742188 56.089844 189.355469 55.929688 188.910156 55.910156 C 188.847656 55.90625 188.785156 55.90625 188.722656 55.910156 Z M 70.832031 88.128906 C 69.992188 88.128906 69.292969 88.417969 68.734375 88.980469 C 68.175781 89.550781 67.890625 90.226562 67.890625 91.015625 L 67.890625 147.257812 C 67.890625 148.164062 68.324219 148.890625 69.1875 149.429688 C 70.050781 149.96875 71.082031 150.230469 72.257812 150.230469 C 73.488281 150.230469 74.535156 149.96875 75.40625 149.429688 C 76.273438 148.886719 76.710938 148.160156 76.710938 147.25 L 76.710938 123.472656 L 85.203125 123.472656 L 97.464844 147.84375 C 98.363281 149.609375 99.542969 150.488281 101.003906 150.488281 C 102.289062 150.488281 103.503906 150.003906 104.652344 149.035156 C 105.800781 148.070312 106.378906 147.019531 106.378906 145.882812 C 106.378906 145.425781 106.261719 145.007812 106.042969 144.613281 L 94.28125 122.21875 C 97.914062 121.316406 100.804688 119.492188 102.933594 116.757812 C 105.066406 114.023438 106.128906 110.253906 106.128906 105.460938 C 106.128906 93.90625 99.6875 88.128906 86.796875 88.128906 Z M 120.125 88.128906 C 118.851562 88.128906 117.773438 88.367188 116.882812 88.851562 C 115.984375 89.332031 115.542969 90.050781 115.542969 91.015625 L 115.542969 147.257812 C 115.542969 148.164062 116.003906 148.890625 116.929688 149.429688 C 117.847656 149.96875 118.910156 150.230469 120.125 150.230469 C 121.390625 150.230469 122.476562 149.96875 123.367188 149.429688 C 124.261719 148.890625 124.707031 148.164062 124.707031 147.257812 L 124.707031 91.015625 C 124.707031 90.050781 124.261719 89.328125 123.367188 88.851562 C 122.476562 88.367188 121.390625 88.128906 120.125 88.128906 Z M 139.109375 88.128906 C 138.113281 88.128906 137.296875 88.417969 136.660156 88.980469 C 136.023438 89.550781 135.703125 90.226562 135.703125 91.015625 L 135.703125 147.257812 C 135.703125 148.164062 136.144531 148.886719 137.035156 149.421875 C 137.914062 149.960938 138.941406 150.230469 140.105469 150.230469 C 141.320312 150.230469 142.363281 149.960938 143.21875 149.421875 C 144.078125 148.882812 144.507812 148.164062 144.507812 147.257812 L 144.507812 126.273438 L 154.808594 126.273438 C 160.453125 126.273438 164.984375 124.753906 168.390625 121.722656 C 171.800781 118.699219 173.503906 113.949219 173.503906 107.496094 L 173.503906 106.820312 C 173.503906 100.367188 171.859375 95.636719 168.5625 92.636719 C 165.265625 89.636719 160.851562 88.128906 155.3125 88.128906 Z M 76.710938 96.117188 L 86.796875 96.117188 C 93.746094 96.117188 97.222656 99.488281 97.222656 106.226562 C 97.222656 112.96875 93.746094 116.335938 86.796875 116.335938 L 76.710938 116.335938 Z M 144.507812 96.117188 L 154.808594 96.117188 C 157.964844 96.117188 160.402344 97.027344 162.121094 98.839844 C 163.839844 100.65625 164.695312 103.398438 164.695312 107.078125 L 164.695312 108.097656 C 164.695312 111.78125 163.839844 114.539062 162.121094 116.378906 C 160.402344 118.214844 157.964844 119.136719 154.808594 119.136719 L 144.507812 119.136719 Z M 18.40625 245.863281 L 216.34375 245.863281 L 216.34375 260.535156 C 216.34375 261.023438 216.4375 261.488281 216.621094 261.941406 C 216.808594 262.390625 217.074219 262.785156 217.417969 263.128906 C 217.761719 263.472656 218.15625 263.738281 218.605469 263.925781 C 219.054688 264.109375 219.523438 264.203125 220.007812 264.203125 L 227.339844 264.203125 L 227.339844 278.875 L 7.410156 278.875 L 7.410156 264.203125 L 159.527344 264.203125 C 159.773438 264.207031 160.007812 264.164062 160.238281 264.070312 C 160.464844 263.980469 160.667969 263.847656 160.839844 263.675781 C 161.015625 263.503906 161.148438 263.304688 161.246094 263.078125 C 161.339844 262.851562 161.386719 262.617188 161.386719 262.371094 C 161.386719 262.125 161.339844 261.886719 161.246094 261.660156 C 161.148438 261.4375 161.015625 261.234375 160.839844 261.0625 C 160.667969 260.890625 160.464844 260.757812 160.238281 260.667969 C 160.007812 260.578125 159.773438 260.53125 159.527344 260.535156 L 18.40625 260.535156 Z M 177.855469 260.535156 C 177.609375 260.53125 177.375 260.578125 177.144531 260.667969 C 176.917969 260.757812 176.71875 260.890625 176.542969 261.0625 C 176.367188 261.234375 176.234375 261.4375 176.136719 261.660156 C 176.042969 261.886719 175.996094 262.125 175.996094 262.371094 C 175.996094 262.617188 176.042969 262.851562 176.136719 263.078125 C 176.234375 263.304688 176.367188 263.503906 176.542969 263.675781 C 176.71875 263.847656 176.917969 263.980469 177.144531 264.070312 C 177.375 264.164062 177.609375 264.207031 177.855469 264.203125 L 192.515625 264.203125 C 192.761719 264.207031 193 264.164062 193.226562 264.070312 C 193.453125 263.980469 193.65625 263.847656 193.828125 263.675781 C 194.003906 263.503906 194.140625 263.304688 194.234375 263.078125 C 194.328125 262.851562 194.375 262.617188 194.375 262.371094 C 194.375 262.125 194.328125 261.886719 194.234375 261.660156 C 194.140625 261.4375 194.003906 261.234375 193.828125 261.0625 C 193.65625 260.890625 193.453125 260.757812 193.226562 260.667969 C 193 260.578125 192.761719 260.53125 192.515625 260.535156 Z M 203.515625 260.535156 C 203.269531 260.53125 203.03125 260.578125 202.804688 260.667969 C 202.578125 260.757812 202.375 260.890625 202.199219 261.0625 C 202.027344 261.234375 201.890625 261.4375 201.796875 261.660156 C 201.703125 261.886719 201.65625 262.125 201.65625 262.371094 C 201.65625 262.617188 201.703125 262.851562 201.796875 263.078125 C 201.890625 263.304688 202.027344 263.503906 202.199219 263.675781 C 202.375 263.847656 202.578125 263.980469 202.804688 264.070312 C 203.03125 264.164062 203.269531 264.207031 203.515625 264.203125 L 207.179688 264.203125 C 207.425781 264.207031 207.660156 264.164062 207.886719 264.070312 C 208.117188 263.980469 208.316406 263.847656 208.492188 263.675781 C 208.667969 263.503906 208.800781 263.304688 208.894531 263.078125 C 208.992188 262.851562 209.039062 262.617188 209.039062 262.371094 C 209.039062 262.125 208.992188 261.886719 208.894531 261.660156 C 208.800781 261.4375 208.667969 261.234375 208.492188 261.0625 C 208.316406 260.890625 208.117188 260.757812 207.886719 260.667969 C 207.660156 260.578125 207.425781 260.53125 207.179688 260.535156 Z M 203.515625 260.535156 " fill-opacity="1" fill-rule="nonzero"/></g></svg>