<svg xmlns="http://www.w3.org/2000/svg" xmlns:xlink="http://www.w3.org/1999/xlink" width="313" zoomAndPan="magnify" viewBox="0 0 234.75 179.999997" height="240" preserveAspectRatio="xMidYMid meet" version="1.0"><defs><clipPath id="a54d3f9694"><path d="M 0 0.15625 L 234.5 0.15625 L 234.5 179.902344 L 0 179.902344 Z M 0 0.15625 " clip-rule="nonzero"/></clipPath></defs><g clip-path="url(#a54d3f9694)"><path fill="#c02777" d="M 230.773438 133.199219 L 219.042969 133.199219 L 219.042969 90.15625 C 219.042969 87.996094 217.289062 86.242188 215.132812 86.242188 L 121.285156 86.242188 L 121.285156 27.546875 L 137.277344 27.546875 C 139.148438 38.632812 148.78125 47.113281 160.386719 47.113281 C 173.328125 47.113281 183.847656 36.582031 183.847656 23.636719 C 183.847656 10.6875 173.328125 0.15625 160.386719 0.15625 C 148.785156 0.15625 139.152344 8.636719 137.277344 19.722656 L 97.824219 19.722656 L 97.824219 7.984375 C 97.824219 5.824219 96.070312 4.070312 93.914062 4.070312 L 62.632812 4.070312 C 60.472656 4.070312 58.722656 5.824219 58.722656 7.984375 L 58.722656 39.289062 C 58.722656 41.449219 60.472656 43.199219 62.632812 43.199219 L 93.914062 43.199219 C 96.070312 43.199219 97.824219 41.449219 97.824219 39.289062 L 97.824219 27.546875 L 113.464844 27.546875 L 113.464844 86.242188 L 23.527344 86.242188 C 21.371094 86.242188 19.617188 87.996094 19.617188 90.15625 L 19.617188 133.554688 C 8.542969 135.425781 0.0664062 145.070312 0.0664062 156.679688 C 0.0664062 169.628906 10.589844 180.15625 23.527344 180.15625 C 36.46875 180.15625 46.992188 169.628906 46.992188 156.679688 C 46.992188 145.070312 38.515625 135.425781 27.4375 133.554688 L 27.4375 94.070312 L 82.183594 94.070312 L 82.183594 133.199219 L 70.453125 133.199219 C 68.292969 133.199219 66.542969 134.953125 66.542969 137.113281 L 66.542969 168.417969 C 66.542969 170.578125 68.292969 172.332031 70.453125 172.332031 L 101.734375 172.332031 C 103.890625 172.332031 105.644531 170.578125 105.644531 168.417969 L 105.644531 137.113281 C 105.644531 134.953125 103.890625 133.199219 101.734375 133.199219 L 90.003906 133.199219 L 90.003906 94.070312 L 144.746094 94.070312 L 144.746094 133.199219 L 133.015625 133.199219 C 130.859375 133.199219 129.105469 134.953125 129.105469 137.113281 L 129.105469 168.417969 C 129.105469 170.578125 130.859375 172.332031 133.015625 172.332031 L 164.296875 172.332031 C 166.457031 172.332031 168.207031 170.578125 168.207031 168.417969 L 168.207031 137.113281 C 168.207031 134.953125 166.457031 133.199219 164.296875 133.199219 L 152.566406 133.199219 L 152.566406 94.070312 L 211.222656 94.070312 L 211.222656 133.199219 L 199.488281 133.199219 C 197.332031 133.199219 195.578125 134.953125 195.578125 137.113281 L 195.578125 168.417969 C 195.578125 170.578125 197.332031 172.332031 199.488281 172.332031 L 230.773438 172.332031 C 232.929688 172.332031 234.683594 170.578125 234.683594 168.417969 L 234.683594 137.113281 C 234.683594 134.953125 232.929688 133.199219 230.773438 133.199219 Z M 160.386719 7.984375 C 169.011719 7.984375 176.027344 15.003906 176.027344 23.636719 C 176.027344 32.269531 169.011719 39.289062 160.386719 39.289062 C 151.761719 39.289062 144.746094 32.265625 144.746094 23.636719 C 144.746094 15.003906 151.761719 7.984375 160.386719 7.984375 Z M 72.742188 11.894531 L 66.542969 18.101562 L 66.542969 11.894531 Z M 66.542969 29.167969 L 83.800781 11.894531 L 90.003906 11.894531 L 90.003906 18.101562 L 72.742188 35.375 L 66.542969 35.375 Z M 83.800781 35.375 L 90.003906 29.167969 L 90.003906 35.375 Z M 21.726562 141.210938 L 8.066406 154.878906 C 8.90625 147.703125 14.558594 142.042969 21.726562 141.210938 Z M 25.332031 172.148438 L 38.992188 158.480469 C 38.152344 165.65625 32.5 171.3125 25.332031 172.148438 Z M 38.363281 151.960938 L 36.40625 150 L 16.855469 169.566406 L 18.8125 171.523438 C 14 169.988281 10.230469 166.214844 8.695312 161.398438 L 10.652344 163.359375 L 30.203125 143.792969 L 28.246094 141.832031 C 33.058594 143.371094 36.828125 147.144531 38.363281 151.960938 Z M 97.824219 164.503906 L 74.363281 164.503906 L 74.363281 141.027344 L 97.824219 141.027344 Z M 160.386719 164.503906 L 136.925781 164.503906 L 136.925781 141.027344 L 160.386719 141.027344 Z M 209.601562 141.027344 L 203.398438 147.234375 L 203.398438 141.027344 Z M 203.398438 158.300781 L 220.660156 141.027344 L 226.863281 141.027344 L 226.863281 147.234375 L 209.601562 164.503906 L 203.398438 164.503906 Z M 220.660156 164.503906 L 226.863281 158.300781 L 226.863281 164.503906 Z M 220.660156 164.503906 " fill-opacity="1" fill-rule="nonzero"/></g></svg>