<svg xmlns="http://www.w3.org/2000/svg" xmlns:xlink="http://www.w3.org/1999/xlink" width="313" zoomAndPan="magnify" viewBox="0 0 234.75 374.999991" height="500" preserveAspectRatio="xMidYMid meet" version="1.0"><defs><clipPath id="e0c062596b"><path d="M 0 0.199219 L 234.5 0.199219 L 234.5 374.800781 L 0 374.800781 Z M 0 0.199219 " clip-rule="nonzero"/></clipPath></defs><g clip-path="url(#e0c062596b)"><path fill="#c02777" d="M 187.796875 363.480469 L 187.796875 334.183594 C 187.796875 330.957031 185.164062 328.324219 181.929688 328.324219 C 178.699219 328.324219 176.0625 330.957031 176.0625 334.183594 L 176.0625 363.480469 L 58.6875 363.480469 L 58.6875 334.183594 C 58.6875 330.957031 56.050781 328.324219 52.820312 328.324219 C 49.585938 328.324219 46.953125 330.957031 46.953125 334.183594 L 46.953125 363.480469 L 11.921875 363.480469 C 14.628906 323.21875 45.003906 289.484375 85.050781 282.753906 L 100.386719 313.378906 C 101.398438 315.347656 103.414062 316.605469 105.636719 316.605469 C 107.863281 316.605469 109.878906 315.347656 110.886719 313.378906 L 117.375 300.402344 L 123.863281 313.378906 C 124.871094 315.347656 126.886719 316.605469 129.113281 316.605469 C 131.335938 316.605469 133.351562 315.347656 134.363281 313.378906 L 149.699219 282.753906 C 189.722656 289.484375 220.121094 323.21875 222.828125 363.480469 Z M 99.128906 272.796875 L 110.496094 287.925781 L 105.636719 297.652344 L 95.183594 276.757812 Z M 117.375 258.011719 C 121.363281 258.011719 125.261719 257.691406 129.113281 257.1875 L 129.113281 261.925781 L 117.375 277.558594 L 105.636719 261.925781 L 105.636719 257.1875 C 109.488281 257.691406 113.386719 258.011719 117.375 258.011719 Z M 35.214844 164.261719 L 35.214844 141.671875 C 38.078125 141.738281 41.035156 141.785156 44.175781 141.785156 C 82.347656 141.785156 137.457031 135.675781 163.039062 103.449219 C 165.082031 100.90625 164.644531 97.222656 162.101562 95.230469 C 159.554688 93.195312 155.863281 93.628906 153.871094 96.167969 C 135.050781 119.835938 90.050781 132.082031 30.492188 129.816406 C 28.75 129.746094 27.121094 128.945312 26.019531 127.59375 C 24.988281 126.335938 24.53125 124.78125 24.785156 123.199219 C 27.328125 106.835938 33.011719 91.273438 41.703125 76.921875 C 57.246094 51.285156 86.242188 35.355469 117.375 35.355469 C 148.507812 35.355469 177.503906 51.285156 193.046875 76.921875 C 201.714844 91.226562 207.398438 106.742188 209.945312 123.039062 C 210.308594 125.351562 209.1875 126.929688 208.476562 127.6875 C 207.125 129.082031 205.265625 129.792969 203.25 129.585938 C 191.949219 128.464844 181.679688 123.679688 174.34375 116.105469 C 172.074219 113.769531 168.382812 113.703125 166.042969 115.96875 C 163.707031 118.210938 163.660156 121.917969 165.90625 124.253906 C 174.617188 133.226562 186.492188 139.0625 199.535156 140.894531 L 199.535156 164.261719 C 199.535156 209.488281 162.671875 246.292969 117.375 246.292969 C 72.078125 246.292969 35.214844 209.488281 35.214844 164.261719 Z M 11.738281 158.402344 C 11.738281 150.917969 16.597656 144.28125 23.476562 141.832031 L 23.476562 164.261719 C 23.476562 167.945312 23.75 171.539062 24.164062 175.109375 C 16.988281 172.890625 11.738281 166.277344 11.738281 158.402344 Z M 117.375 11.917969 C 125.558594 11.917969 132.390625 17.546875 134.363281 25.101562 C 128.792969 24.164062 123.128906 23.636719 117.375 23.636719 C 111.621094 23.636719 105.957031 24.164062 100.386719 25.101562 C 102.359375 17.546875 109.191406 11.917969 117.375 11.917969 Z M 170.101562 35.46875 L 170.742188 38.652344 C 163.246094 34.050781 155.109375 30.457031 146.558594 27.917969 C 146.238281 21.921875 144.128906 16.425781 140.6875 11.917969 L 141.332031 11.917969 C 155.269531 11.917969 167.375 21.828125 170.101562 35.46875 Z M 210.585938 175.109375 C 211 171.539062 211.273438 167.945312 211.273438 164.261719 L 211.273438 141.855469 C 218.152344 144.304688 223.011719 150.871094 223.011719 158.402344 C 223.011719 166.277344 217.761719 172.890625 210.585938 175.109375 Z M 168.953125 242.515625 C 184.039062 232.558594 196.074219 218.414062 203.386719 201.730469 L 215.789062 263.550781 C 198.296875 261.925781 181.792969 254.511719 168.953125 242.515625 Z M 135.621094 272.796875 L 139.566406 276.757812 L 129.113281 297.652344 L 124.253906 287.925781 Z M 150.410156 270.988281 L 140.847656 261.445312 L 140.847656 254.921875 C 146.949219 253.34375 152.816406 251.191406 158.386719 248.46875 C 175.417969 265.679688 198.6875 275.589844 223.011719 275.589844 C 224.777344 275.589844 226.425781 274.789062 227.550781 273.4375 C 228.671875 272.089844 229.109375 270.304688 228.765625 268.585938 L 212.375 186.785156 C 225.1875 183.625 234.746094 172.136719 234.746094 158.402344 C 234.746094 147.4375 228.558594 137.664062 219.320312 132.652344 C 221.359375 129.242188 222.164062 125.261719 221.542969 121.230469 C 218.769531 103.425781 212.558594 86.464844 203.089844 70.855469 C 198.113281 62.636719 191.902344 55.335938 184.773438 49.042969 L 181.609375 33.179688 C 177.78125 14.070312 160.839844 0.199219 141.332031 0.199219 C 141.332031 0.199219 118.703125 0.199219 117.375 0.199219 C 101.742188 0.199219 89.039062 12.511719 88.191406 27.917969 C 64.71875 34.875 44.292969 50.027344 31.660156 70.855469 C 22.171875 86.511719 15.957031 103.515625 13.183594 121.414062 C 12.585938 125.328125 13.414062 129.289062 15.40625 132.675781 C 6.191406 137.710938 0.00390625 147.507812 0.00390625 158.402344 C 0.00390625 173.578125 11.671875 185.960938 26.503906 187.402344 C 34.9375 220.40625 60.890625 246.40625 93.902344 254.921875 L 93.902344 261.445312 L 84.339844 270.988281 C 36.152344 278.472656 0.00390625 320.40625 0.00390625 369.339844 C 0.00390625 372.566406 2.636719 375.199219 5.871094 375.199219 L 228.878906 375.199219 C 232.113281 375.199219 234.746094 372.566406 234.746094 369.339844 C 234.746094 320.429688 198.597656 278.449219 150.410156 270.988281 " fill-opacity="1" fill-rule="nonzero"/></g><path fill="#c02777" d="M 82.164062 164.261719 L 82.164062 152.542969 C 82.164062 149.316406 79.527344 146.683594 76.292969 146.683594 C 73.0625 146.683594 70.425781 149.316406 70.425781 152.542969 L 70.425781 164.261719 C 70.425781 167.488281 73.0625 170.121094 76.292969 170.121094 C 79.527344 170.121094 82.164062 167.488281 82.164062 164.261719 " fill-opacity="1" fill-rule="nonzero"/><path fill="#c02777" d="M 158.457031 170.121094 C 161.6875 170.121094 164.324219 167.488281 164.324219 164.261719 L 164.324219 152.542969 C 164.324219 149.316406 161.6875 146.683594 158.457031 146.683594 C 155.222656 146.683594 152.585938 149.316406 152.585938 152.542969 L 152.585938 164.261719 C 152.585938 167.488281 155.222656 170.121094 158.457031 170.121094 " fill-opacity="1" fill-rule="nonzero"/><path fill="#c02777" d="M 92.546875 211.136719 L 142.203125 211.136719 C 136.195312 218.507812 127.1875 222.855469 117.375 222.855469 C 107.5625 222.855469 98.554688 218.507812 92.546875 211.136719 Z M 156.597656 210.359375 L 157.835938 207.910156 C 158.753906 206.078125 158.640625 203.925781 157.585938 202.1875 C 156.507812 200.472656 154.628906 199.417969 152.585938 199.417969 L 82.164062 199.417969 C 80.121094 199.417969 78.242188 200.472656 77.164062 202.1875 C 76.109375 203.925781 75.996094 206.078125 76.914062 207.910156 L 78.152344 210.359375 C 85.625 225.304688 100.664062 234.574219 117.375 234.574219 C 134.085938 234.574219 149.125 225.304688 156.597656 210.359375 " fill-opacity="1" fill-rule="nonzero"/></svg>